<?xml version="1.0" encoding="utf-8"?>
<!-- Generator: Adobe Illustrator 15.1.0, SVG Export Plug-In . SVG Version: 6.00 Build 0)  -->
<!DOCTYPE svg PUBLIC "-//W3C//DTD SVG 1.1//EN" "http://www.w3.org/Graphics/SVG/1.1/DTD/svg11.dtd">
<svg version="1.1" id="Layer_1" xmlns="http://www.w3.org/2000/svg" xmlns:xlink="http://www.w3.org/1999/xlink" x="0px" y="0px"
	 width="100px" height="100px" viewBox="0 0 100 100" enable-background="new 0 0 100 100" xml:space="preserve">
<g>
	<path fill="#FFFFFF" d="M17.563,30.277h0.012c0,1.245,1.004,2.254,2.246,2.267v0.002H80.18v-0.001
		c1.248-0.006,2.26-1.018,2.26-2.268h0.01V19.818l0,0c-0.002-1.251-1.018-2.265-2.27-2.265l0,0H19.821l0,0l0,0
		c-1.253,0-2.269,1.017-2.269,2.27c0,0.039,0.01,0.076,0.012,0.115L17.563,30.277z"/>
	<path fill="#FFFFFF" d="M80.18,42.504L80.18,42.504H19.821l0,0l0,0c-1.253,0-2.269,1.017-2.269,2.269
		c0,0.039,0.01,0.076,0.012,0.115v10.34h0.012c0,1.244,1.004,2.254,2.246,2.267v0.002h60.36v-0.001
		c1.248-0.006,2.258-1.018,2.258-2.268h0.011V44.769l0,0C82.445,43.518,81.432,42.504,80.18,42.504z"/>
	<path fill="#FFFFFF" d="M80.18,67.454L80.18,67.454H19.821l0,0l0,0c-1.253,0-2.269,1.017-2.269,2.269
		c0,0.039,0.01,0.076,0.012,0.115v10.34h0.012c0,1.245,1.004,2.254,2.246,2.268v0.002h60.36v-0.002
		c1.248-0.006,2.258-1.019,2.258-2.269h0.011V69.718l0,0C82.445,68.468,81.432,67.454,80.18,67.454z"/>
</g>
</svg>
